<svg width="48" height="48" xmlns="http://www.w3.org/2000/svg" xmlns:xlink="http://www.w3.org/1999/xlink" xml:space="preserve" overflow="hidden"><g transform="translate(-667 -64)"><path d="M677.646 95.8535C677.845 96.0453 678.162 96.0398 678.354 95.8412 678.541 95.6474 678.541 95.3402 678.354 95.1465L671.716 88.5085C671.714 88.5065 671.714 88.5033 671.716 88.5014 671.716 88.5005 671.718 88.5 671.719 88.5L711.5 88.5C711.776 88.5 712 88.2762 712 88 712 87.7238 711.776 87.5 711.5 87.5L671.719 87.5C671.716 87.5 671.714 87.4977 671.714 87.4949 671.714 87.4937 671.715 87.4924 671.716 87.4915L678.354 80.8535C678.552 80.6617 678.558 80.3452 678.366 80.1465 678.174 79.9478 677.857 79.9424 677.659 80.1342 677.655 80.1383 677.651 80.1423 677.646 80.1465L670.146 87.6465C669.951 87.8418 669.951 88.1582 670.146 88.3535Z" fill="#997E33"/></g></svg>