<svg width="50" height="50" xmlns="http://www.w3.org/2000/svg" xmlns:xlink="http://www.w3.org/1999/xlink" viewBox="0 0 165 165" preserveAspectRatio="xMidYMid meet">
  <g transform="translate(-3272 -366)">
    <path d="M3388.88 391.781C3388.88 390.832 3388.11 390.063 3387.16 390.063 3386.21 390.063 3385.44 390.832 3385.44 391.781L3385.44 400.375 3323.56 400.375 3323.56 391.781C3323.56 390.832 3322.79 390.063 3321.84 390.063 3320.89 390.063 3320.13 390.832 3320.13 391.781L3320.13 400.375 3296.06 400.375 3296.06 506.938 3412.94 506.938 3412.94 400.375 3388.88 400.375ZM3409.5 503.5 3299.5 503.5 3299.5 429.594 3409.5 429.594ZM3409.5 403.813 3409.5 426.156 3299.5 426.156 3299.5 403.813 3320.13 403.813 3320.13 410.688C3320.13 411.637 3320.89 412.406 3321.84 412.406 3322.79 412.406 3323.56 411.637 3323.56 410.688L3323.56 403.813 3385.44 403.813 3385.44 410.688C3385.44 411.637 3386.21 412.406 3387.16 412.406 3388.11 412.406 3388.88 411.637 3388.88 410.688L3388.88 403.813Z" fill="#523C00"/>
    <text fill="#523C00" font-family="Calibri,Calibri_MSFontService,sans-serif" font-weight="400" font-size="55" transform="matrix(1 0 0 1 3311.76 482)">JAN</text>
  </g>
</svg>
