<svg width="24" height="24" xmlns="http://www.w3.org/2000/svg" xmlns:xlink="http://www.w3.org/1999/xlink" xml:space="preserve" overflow="hidden"><g transform="translate(-793 -77)"><path d="M813.25 82.5C813.248 81.9484 812.802 81.5016 812.25 81.5L807.75 81.5 807.75 80.75C807.749 80.06 807.19 79.5008 806.5 79.5L803.5 79.5C802.81 79.5008 802.251 80.06 802.25 80.75L802.25 81.5 797.75 81.5C797.198 81.5016 796.752 81.9484 796.75 82.5L796.75 84 797.762 84 798.452 97.5635C798.486 98.2281 799.035 98.7496 799.7 98.75L810.3 98.75C810.966 98.7499 811.514 98.2283 811.548 97.5635L812.238 84 813.25 84ZM802.75 80.75C802.75 80.3358 803.086 80 803.5 80L806.5 80C806.914 80 807.25 80.3358 807.25 80.75L807.25 81.5 802.75 81.5ZM811.049 97.538C811.028 97.9367 810.699 98.2497 810.3 98.25L799.7 98.25C799.3 98.2505 798.97 97.9373 798.95 97.538L798.263 84 811.738 84ZM812.75 83.5 797.25 83.5 797.25 82.5C797.25 82.2238 797.474 82 797.75 82L812.25 82C812.526 82 812.75 82.2238 812.75 82.5Z" stroke="#C00000" stroke-width="0.249974" fill="#C00000"/><path d="M802 96.5 802.013 96.5C802.15 96.4933 802.257 96.376 802.25 96.2381 802.25 96.238 802.25 96.2379 802.25 96.2377L801.75 85.9877C801.743 85.8497 801.626 85.7433 801.487 85.7503 801.349 85.7571 801.243 85.8747 801.25 86.0127L801.75 96.2627C801.757 96.3958 801.867 96.5002 802 96.5Z" stroke="#C00000" stroke-width="0.249974" fill="#C00000"/><path d="M805 96.5C805.138 96.5 805.25 96.3881 805.25 96.25L805.25 86C805.25 85.8619 805.138 85.75 805 85.75 804.862 85.75 804.75 85.8619 804.75 86L804.75 96.25C804.75 96.3881 804.862 96.5 805 96.5Z" stroke="#C00000" stroke-width="0.249974" fill="#C00000"/><path d="M807.988 96.5 808 96.5C808.133 96.5002 808.243 96.3955 808.25 96.2623L808.75 86.0123C808.757 85.8742 808.651 85.7567 808.513 85.7497 808.374 85.7429 808.257 85.8492 808.25 85.9873L807.75 96.2373C807.743 96.3751 807.849 96.4928 807.987 96.5 807.987 96.5 807.987 96.5 807.988 96.5Z" stroke="#C00000" stroke-width="0.249974" fill="#C00000"/></g></svg>