<svg xmlns="http://www.w3.org/2000/svg" xmlns:xlink="http://www.w3.org/1999/xlink" xml:space="preserve" overflow="hidden" viewBox="0 0 355 301"><defs><filter id="fx0" x="-10%" y="-10%" width="120%" height="120%" filterUnits="userSpaceOnUse" primitiveUnits="userSpaceOnUse"><feComponentTransfer color-interpolation-filters="sRGB"><feFuncR type="discrete" tableValues="0 0"/><feFuncG type="discrete" tableValues="0 0"/><feFuncB type="discrete" tableValues="0 0"/><feFuncA type="linear" slope="0.4" intercept="0"/></feComponentTransfer><feGaussianBlur stdDeviation="1.74007 1.74007"/></filter><clipPath id="clip1"><rect x="50" y="44" width="174" height="88"/></clipPath></defs><g transform="translate(-964 -132)"><g clip-path="url(#clip1)" filter="url(#fx0)" transform="translate(1048 247)"><g><path d="M19.8179-49.7676C19.6828-49.0111 19.5004-48.3761 19.2708-47.8628 19.0411-47.3494 18.7371-46.9374 18.3589-46.6267 17.9806-46.316 17.5078-46.0931 16.9404-45.958 16.373-45.8229 15.6841-45.7554 14.8735-45.7554 14.09-45.7554 13.4416-45.8229 12.9282-45.958 12.4149-46.0931 12.0366-46.316 11.7935-46.6267 11.5503-46.9374 11.4152-47.3494 11.3882-47.8628 11.3612-48.3761 11.4152-49.0111 11.5503-49.7676 11.7124-50.5241 11.915-51.1523 12.1582-51.6521 12.4014-52.1519 12.7053-52.5707 13.0701-52.9084 13.4348-53.2462 13.9009-53.4758 14.4683-53.5974 15.0356-53.719 15.7246-53.7798 16.5352-53.7798 17.3187-53.7798 17.9604-53.719 18.4602-53.5974 18.96-53.4758 19.3383-53.2462 19.595-52.9084 19.8516-52.5707 19.9935-52.1519 20.0205-51.6521 20.0475-51.1523 19.98-50.5241 19.8179-49.7676ZM9.32129-1.01318C9.26725-0.797038 9.17269-0.614665 9.0376-0.466064 8.90251-0.317464 8.69987-0.189128 8.42969-0.0810547 8.1595 0.0270182 7.80151 0.108073 7.35571 0.162109 6.90991 0.216146 6.36279 0.243164 5.71435 0.243164 5.0389 0.243164 4.49178 0.216146 4.073 0.162109 3.65421 0.108073 3.33 0.0270182 3.10034-0.0810547 2.87069-0.189128 2.72209-0.317464 2.65454-0.466064 2.587-0.614665 2.58024-0.797038 2.63428-1.01318L9.88867-37.4878C9.91569-37.6769 9.99674-37.8525 10.1318-38.0146 10.2669-38.1768 10.4696-38.3118 10.7397-38.4199 11.0099-38.528 11.3679-38.609 11.8137-38.6631 12.2595-38.7171 12.8201-38.7441 13.4956-38.7441 14.144-38.7441 14.6777-38.7171 15.0964-38.6631 15.5152-38.609 15.8394-38.528 16.0691-38.4199 16.2987-38.3118 16.4473-38.1768 16.5149-38.0146 16.5824-37.8525 16.6027-37.6769 16.5757-37.4878ZM49.1802-35.5019C49.1802-35.2318 49.1396-34.8738 49.0586-34.428 48.9775-33.9822 48.8627-33.5431 48.7141-33.1108 48.5655-32.6785 48.3899-32.3138 48.1873-32.0166 47.9846-31.7194 47.7617-31.5708 47.5186-31.5708 47.1943-31.5708 46.8093-31.6991 46.3635-31.9558 45.9177-32.2125 45.3706-32.5029 44.7222-32.8271 44.0737-33.1514 43.297-33.4486 42.3918-33.7187 41.4867-33.9889 40.4128-34.124 39.1699-34.124 37.9811-34.124 36.9274-33.9552 36.0088-33.6174 35.0902-33.2797 34.3201-32.8204 33.6987-32.2395 33.0773-31.6586 32.6045-30.9967 32.2803-30.2537 31.956-29.5107 31.7939-28.7339 31.7939-27.9233 31.7939-26.8426 32.1519-25.9443 32.8679-25.2283 33.5839-24.5123 34.4823-23.8706 35.563-23.3032 36.6437-22.7358 37.8123-22.1752 39.0686-21.6213 40.3249-21.0675 41.4867-20.392 42.554-19.595 43.6212-18.7979 44.5128-17.8388 45.2288-16.7175 45.9447-15.5963 46.3027-14.1846 46.3027-12.4824 46.3027-10.5911 45.9312-8.82821 45.1882-7.1936 44.4452-5.559 43.378-4.15405 41.9866-2.97876 40.5951-1.80347 38.9132-0.884847 36.9409-0.2229 34.9686 0.439046 32.7666 0.770019 30.335 0.770019 29.0651 0.770019 27.8695 0.675456 26.7483 0.486328 25.627 0.297201 24.6138 0.0540364 23.7087-0.243164 22.8036-0.540365 22.0269-0.871338 21.3784-1.23608 20.73-1.60083 20.2301-1.94531 19.8789-2.26953 19.6628-2.48568 19.5074-2.70858 19.4128-2.93823 19.3183-3.16789 19.271-3.44482 19.271-3.76904 19.271-3.98519 19.2845-4.24186 19.3115-4.53906 19.3385-4.83626 19.3926-5.14697 19.4736-5.47119 19.5547-5.79541 19.6425-6.10612 19.7371-6.40332 19.8316-6.70052 19.9464-6.9707 20.0815-7.21387 20.2166-7.45703 20.3517-7.65291 20.4868-7.80151 20.6219-7.95011 20.784-8.02441 20.9731-8.02441 21.2974-8.02441 21.6891-7.84204 22.1484-7.47729 22.6077-7.11255 23.2089-6.72078 23.9519-6.302 24.6949-5.88322 25.6203-5.49145 26.728-5.12671 27.8358-4.76196 29.2137-4.57959 30.8618-4.57959 32.3478-4.57959 33.6244-4.76196 34.6916-5.12671 35.7589-5.49145 36.6437-5.97778 37.3462-6.58569 38.0487-7.1936 38.5688-7.90283 38.9065-8.71338 39.2442-9.52392 39.4131-10.375 39.4131-11.2666 39.4131-12.4014 39.0618-13.3267 38.3594-14.0427 37.6569-14.7587 36.772-15.4071 35.7048-15.988 34.6376-16.5689 33.4826-17.1431 32.2397-17.7104 30.9969-18.2778 29.8419-18.9465 28.7747-19.7166 27.7074-20.4866 26.8158-21.4322 26.0999-22.5535 25.3839-23.6747 25.0259-25.0999 25.0259-26.8291 25.0259-28.6123 25.3771-30.2672 26.0796-31.7937 26.7821-33.3202 27.775-34.6441 29.0583-35.7654 30.3417-36.8866 31.8818-37.758 33.6785-38.3794 35.4752-39.0008 37.4678-39.3115 39.6562-39.3115 40.6829-39.3115 41.6759-39.2305 42.635-39.0684 43.5942-38.9062 44.479-38.7036 45.2895-38.4604 46.1001-38.2173 46.8026-37.9471 47.397-37.6499 47.9914-37.3527 48.4372-37.0555 48.7344-36.7583 49.0316-36.4881 49.1802-36.0693 49.1802-35.5019ZM78.8068-37.0825C78.8068-36.8394 78.7933-36.5759 78.7663-36.2922 78.7393-36.0085 78.6852-35.7181 78.6042-35.4209 78.5231-35.1237 78.415-34.8265 78.2799-34.5293 78.1449-34.2321 78.003-33.9687 77.8544-33.739 77.7058-33.5094 77.5369-33.327 77.3478-33.1919 77.1587-33.0568 76.9425-32.9893 76.6994-32.9893L67.3781-32.9893 63.2848-12.6445C63.1768-12.0771 63.0822-11.4422 63.0011-10.7397 62.9201-10.0373 62.8796-9.45638 62.8796-8.99707 62.8796-7.61914 63.17-6.61271 63.7509-5.97778 64.3318-5.34285 65.2707-5.02539 66.5675-5.02539 67.297-5.02539 67.932-5.08618 68.4723-5.20776 69.0127-5.32934 69.4788-5.45768 69.8705-5.59277 70.2623-5.72786 70.6068-5.8562 70.904-5.97778 71.2012-6.09936 71.4578-6.16016 71.674-6.16016 71.8901-6.16016 72.059-6.08586 72.1806-5.93726 72.3022-5.78866 72.363-5.51172 72.363-5.10644 72.363-4.75521 72.3292-4.3702 72.2616-3.95142 72.1941-3.53263 72.1063-3.1206 71.9982-2.71533 71.8901-2.31006 71.755-1.94531 71.5929-1.62109 71.4308-1.29687 71.2552-1.0402 71.0661-0.851074 70.8499-0.661947 70.5257-0.472819 70.0934-0.283691 69.6611-0.0945638 69.1613 0.0743001 68.5939 0.2229 68.0265 0.371501 67.4254 0.486328 66.7904 0.567383 66.1555 0.648437 65.5273 0.688965 64.9059 0.688965 63.3929 0.688965 62.0825 0.526855 60.9748 0.202637 59.867-0.121582 58.9349-0.628174 58.1784-1.31714 57.4219-2.0061 56.8612-2.87069 56.4965-3.91089 56.1318-4.95109 55.9494-6.20068 55.9494-7.65967 55.9494-7.98389 55.9629-8.34188 55.9899-8.73364 56.0169-9.12541 56.0642-9.53743 56.1318-9.96973 56.1993-10.402 56.2668-10.8343 56.3344-11.2666 56.4019-11.6989 56.4762-12.1042 56.5573-12.4824L60.6506-32.9893 55.5846-32.9893C55.2874-32.9893 55.0578-33.0771 54.8957-33.2527 54.7336-33.4283 54.6525-33.7728 54.6525-34.2861 54.6525-34.6644 54.693-35.1034 54.7741-35.6033 54.8551-36.1031 54.9767-36.5692 55.1388-37.0015 55.3009-37.4338 55.5103-37.7985 55.767-38.0957 56.0237-38.3929 56.3276-38.5415 56.6789-38.5415L61.7853-38.5415 63.528-47.2144C63.555-47.4035 63.6428-47.5791 63.7914-47.7412 63.94-47.9033 64.1494-48.0452 64.4196-48.1667 64.6898-48.2883 65.0478-48.3761 65.4936-48.4302 65.9394-48.4842 66.4865-48.5112 67.1349-48.5112 67.7834-48.5112 68.317-48.4842 68.7358-48.4302 69.1545-48.3761 69.4788-48.2883 69.7084-48.1667 69.9381-48.0452 70.0867-47.9033 70.1542-47.7412 70.2218-47.5791 70.242-47.4035 70.215-47.2144L68.4723-38.5415 77.7936-38.5415C78.1989-38.5415 78.4691-38.3929 78.6042-38.0957 78.7393-37.7985 78.8068-37.4608 78.8068-37.0825ZM97.3908-49.7676C97.2557-49.0111 97.0733-48.3761 96.8437-47.8628 96.614-47.3494 96.3101-46.9374 95.9318-46.6267 95.5535-46.316 95.0807-46.0931 94.5133-45.958 93.946-45.8229 93.257-45.7554 92.4464-45.7554 91.6629-45.7554 91.0145-45.8229 90.5011-45.958 89.9878-46.0931 89.6095-46.316 89.3664-46.6267 89.1232-46.9374 88.9881-47.3494 88.9611-47.8628 88.9341-48.3761 88.9881-49.0111 89.1232-49.7676 89.2853-50.5241 89.4879-51.1523 89.7311-51.6521 89.9743-52.1519 90.2782-52.5707 90.643-52.9084 91.0077-53.2462 91.4738-53.4758 92.0412-53.5974 92.6086-53.719 93.2975-53.7798 94.1081-53.7798 94.8916-53.7798 95.5333-53.719 96.0331-53.5974 96.533-53.4758 96.9112-53.2462 97.1679-52.9084 97.4246-52.5707 97.5664-52.1519 97.5934-51.6521 97.6204-51.1523 97.5529-50.5241 97.3908-49.7676ZM86.8942-1.01318C86.8402-0.797038 86.7456-0.614665 86.6105-0.466064 86.4754-0.317464 86.2728-0.189128 86.0026-0.0810547 85.7324 0.0270182 85.3744 0.108073 84.9286 0.162109 84.4828 0.216146 83.9357 0.243164 83.2873 0.243164 82.6118 0.243164 82.0647 0.216146 81.6459 0.162109 81.2271 0.108073 80.9029 0.0270182 80.6733-0.0810547 80.4436-0.189128 80.295-0.317464 80.2275-0.466064 80.1599-0.614665 80.1532-0.797038 80.2072-1.01318L87.4616-37.4878C87.4886-37.6769 87.5697-37.8525 87.7048-38.0146 87.8398-38.1768 88.0425-38.3118 88.3127-38.4199 88.5828-38.528 88.9408-38.609 89.3866-38.6631 89.8324-38.7171 90.3931-38.7441 91.0685-38.7441 91.7169-38.7441 92.2506-38.7171 92.6693-38.6631 93.0881-38.609 93.4123-38.528 93.642-38.4199 93.8717-38.3118 94.0203-38.1768 94.0878-38.0146 94.1553-37.8525 94.1756-37.6769 94.1486-37.4878ZM129.59-54.104C129.59-53.9959 129.576-53.8271 129.549-53.5974 129.522-53.3678 129.489-53.1111 129.448-52.8274 129.408-52.5437 129.347-52.2465 129.266-51.9358 129.185-51.6251 129.09-51.3346 128.982-51.0644 128.874-50.7943 128.752-50.5781 128.617-50.416 128.482-50.2539 128.334-50.1728 128.172-50.1728 127.982-50.1728 127.746-50.2269 127.462-50.335 127.179-50.443 126.848-50.5579 126.469-50.6794 126.091-50.801 125.645-50.9158 125.132-51.0239 124.619-51.132 124.051-51.186 123.43-51.186 122.268-51.186 121.275-51.0104 120.451-50.6592 119.627-50.3079 118.918-49.7608 118.323-49.0178 117.729-48.2748 117.229-47.3359 116.824-46.2012 116.419-45.0664 116.067-43.729 115.77-42.189L115.081-38.5415 123.227-38.5415C123.524-38.5415 123.761-38.4402 123.936-38.2375 124.112-38.0349 124.2-37.7039 124.2-37.2446 124.2-36.9474 124.173-36.6367 124.119-36.3125 124.065-35.9883 123.997-35.6708 123.916-35.3601 123.835-35.0494 123.734-34.7522 123.612-34.4685 123.491-34.1848 123.356-33.9349 123.207-33.7187 123.058-33.5026 122.889-33.327 122.7-33.1919 122.511-33.0568 122.322-32.9893 122.133-32.9893L113.946-32.9893 107.016 1.54004C106.557 3.80957 105.936 5.77515 105.152 7.43677 104.368 9.09839 103.409 10.4763 102.275 11.5706 101.14 12.6648 99.8294 13.4753 98.3434 14.0022 96.8574 14.5291 95.1823 14.7925 93.318 14.7925 92.1022 14.7925 91.1093 14.6979 90.3393 14.5088 89.5692 14.3197 89.0897 14.144 88.9006 13.9819 88.7925 13.8468 88.7114 13.6982 88.6574 13.5361 88.6033 13.374 88.5763 13.1579 88.5763 12.8877 88.5763 12.7796 88.5966 12.5972 88.6371 12.3406 88.6776 12.0839 88.7249 11.8137 88.779 11.53 88.833 11.2463 88.9006 10.9491 88.9816 10.6384 89.0627 10.3277 89.1572 10.0373 89.2653 9.76709 89.3734 9.49691 89.4949 9.28076 89.63 9.11865 89.7651 8.95654 89.9272 8.87549 90.1164 8.87549 90.3055 8.87549 90.4879 8.89575 90.6635 8.93628 90.8391 8.97681 91.0282 9.01733 91.2309 9.05786 91.4335 9.09839 91.6767 9.13892 91.9604 9.17944 92.2441 9.21997 92.6021 9.24023 93.0343 9.24023 94.1691 9.24023 95.1485 9.06462 95.9726 8.71338 96.7966 8.36214 97.4991 7.81502 98.08 7.07202 98.6609 6.32902 99.1472 5.39014 99.539 4.25537 99.9307 3.1206 100.289 1.75618 100.613 0.162109L107.259-32.9893 102.072-32.9893C101.802-32.9893 101.592-33.0771 101.444-33.2527 101.295-33.4283 101.221-33.7593 101.221-34.2456 101.221-34.4617 101.234-34.7252 101.261-35.0359 101.288-35.3466 101.336-35.6641 101.403-35.9883 101.471-36.3125 101.559-36.6232 101.667-36.9204 101.775-37.2176 101.91-37.4878 102.072-37.731 102.234-37.9741 102.403-38.17 102.579-38.3186 102.754-38.4672 102.977-38.5415 103.247-38.5415L108.354-38.5415 109.367-43.6074C109.799-45.8229 110.421-47.7615 111.231-49.4231 112.042-51.0847 113.021-52.4559 114.169-53.5366 115.318-54.6173 116.642-55.4211 118.141-55.948 119.641-56.4748 121.295-56.7383 123.106-56.7383 123.7-56.7383 124.321-56.7045 124.97-56.637 125.618-56.5694 126.219-56.4748 126.773-56.3533 127.327-56.2317 127.814-56.0898 128.232-55.9277 128.651-55.7656 128.942-55.6035 129.104-55.4414 129.266-55.3063 129.387-55.1172 129.468-54.874 129.549-54.6309 129.59-54.3742 129.59-54.104ZM159.9-37.7715C159.9-37.4743 159.873-37.1703 159.819-36.8596 159.765-36.5489 159.67-36.2585 159.535-35.9883 158.643-33.5296 157.671-30.9696 156.617-28.3083 155.563-25.6471 154.334-22.8642 152.929-19.9597 151.524-17.0553 149.883-14.0225 148.005-10.8613 146.127-7.70019 143.891-4.37695 141.298-0.891602L130.801 13.4145C130.639 13.6307 130.436 13.8198 130.193 13.9819 129.95 14.144 129.653 14.2859 129.302 14.4075 128.95 14.5291 128.525 14.6169 128.025 14.6709 127.525 14.7249 126.937 14.752 126.262 14.752 125.533 14.752 124.931 14.7182 124.459 14.6506 123.986 14.5831 123.628 14.4683 123.385 14.3062 123.141 14.144 123.033 13.9279 123.06 13.6577 123.087 13.3875 123.249 13.0633 123.547 12.6851L133.435 0 127.397-35.6235C127.343-35.9478 127.302-36.2449 127.275-36.5151 127.248-36.7853 127.235-37.015 127.235-37.2041 127.235-37.5013 127.282-37.7512 127.377-37.9539 127.471-38.1565 127.653-38.3186 127.924-38.4402 128.194-38.5618 128.552-38.6428 128.998-38.6833 129.443-38.7239 129.991-38.7441 130.639-38.7441 131.368-38.7441 131.943-38.7239 132.361-38.6833 132.78-38.6428 133.104-38.5753 133.334-38.4807 133.564-38.3861 133.726-38.2443 133.82-38.0552 133.915-37.866 133.976-37.6364 134.003-37.3662L138.744-7.61914 138.825-7.61914C140.501-9.96972 142.014-12.3608 143.365-14.7925 144.715-17.2241 145.958-19.6895 147.093-22.1887 148.228-24.6879 149.275-27.2141 150.234-29.7673 151.193-32.3206 152.091-34.9075 152.929-37.5283 152.983-37.7445 153.084-37.9268 153.233-38.0754 153.382-38.224 153.598-38.3524 153.881-38.4604 154.165-38.5685 154.55-38.6428 155.036-38.6833 155.523-38.7239 156.131-38.7441 156.86-38.7441 158.076-38.7441 158.887-38.6631 159.292-38.501 159.697-38.3389 159.9-38.0957 159.9-37.7715Z" fill="#997E33" transform="matrix(1 0 0 1 56.0543 109)"/></g></g><text fill="#997E33" font-family="Calibri,Calibri_MSFontService,sans-serif" font-style="italic" font-weight="400" font-size="83" transform="matrix(1 0 0 1 1102.12 354)">istify</text><g><g><g><path d="M135.5 251.239C126.769 251.239 122.232 246.263 118.17 240.583 115.017 236.176 112.982 233.658 107.878 233.19 101.591 232.625 95.6376 236.044 88.744 240.01 77.3084 246.596 63.0752 254.785 42.7502 245.193 39.9502 243.821 38.7928 240.438 40.165 237.639 41.5084 234.897 44.7887 233.72 47.5689 234.982 62.5586 242.057 72.0831 236.572 83.1095 230.226 90.9515 225.709 99.0505 221.04 108.911 221.946 119.406 222.909 123.997 229.325 127.353 234.011 131.35 239.595 133.357 242.398 145.818 237.399 148.713 236.24 151.999 237.648 153.157 240.543 154.316 243.439 152.908 246.725 150.013 247.883 145.43 249.906 140.506 251.045 135.5 251.239Z" fill="#997E33" transform="matrix(1 0 0 1 964 132)"/><path d="M68.5968 180.435C62.2453 190.699 48.7094 213.977 43.0946 234.237 43.0729 234.341 43.1392 234.443 43.2431 234.464 43.3145 234.479 43.3882 234.452 43.4334 234.395 48.4387 228.392 54.174 223.037 60.5064 218.454L60.5064 218.454C60.5854 218.22 65.4182 204.45 79.7389 182.679 79.7663 182.637 79.8162 182.615 79.8659 182.623 85.0042 183.076 90.1794 182.419 95.0419 180.698 114.85 175.199 129.199 156.373 130.611 154.445 130.667 154.368 130.611 154.284 130.509 154.284 122.864 154.193 115.335 152.405 108.465 149.05 108.291 148.965 108.172 148.796 108.152 148.604 108.141 148.525 108.149 148.445 108.174 148.37 108.257 148.1 108.525 147.932 108.804 147.977L108.821 147.977C123.933 150.372 139.194 144.658 149.016 132.925 155.117 125.591 161.821 118.78 169.059 112.564 178.14 104.764 189.632 97.0208 200.252 89.015 200.805 88.5752 200.896 87.7709 200.457 87.2182 200.264 86.9766 199.991 86.8126 199.687 86.7567 192.7 85.4522 186.059 82.7157 180.181 78.7198 180.043 78.6269 179.954 78.4785 179.935 78.3133 179.921 78.2072 179.939 78.0991 179.986 78.0028 180.107 77.7479 180.398 77.6214 180.667 77.7064 189.534 80.4155 198.967 80.6925 207.978 78.5081 213.283 77.1983 218.041 74.2511 221.576 70.0845 230.979 59.1006 234.844 47.2923 226.265 33.9907 220.416 24.9207 207.377 21.0053 190.476 22.9559 180.579 23.9988 172.106 30.5089 168.548 39.8031 167.333 43.0591 166.453 46.4299 165.92 49.864 165.92 50.1759 165.667 50.4286 165.355 50.4286 165.043 50.4286 164.79 50.1759 164.79 49.864 164.709 49.2994 164.638 48.7348 164.573 48.1702 163.945 42.56 164.244 36.8845 165.457 31.3711 165.623 30.7006 165.214 30.0226 164.544 29.8563 164.3 29.7959 164.044 29.8103 163.808 29.8975 150.565 35.2066 138.045 42.1665 126.546 50.6121 113.228 60.197 101.015 71.2295 90.13 83.5075 83.143 91.3558 79.408 101.571 79.6853 112.075 79.86 116.481 80.6038 120.846 81.8984 125.061 82.0048 125.354 81.8538 125.678 81.5608 125.784 81.3076 125.876 81.0247 125.777 80.885 125.546 77.2731 120.227 74.6881 114.28 73.2631 108.01L73.0316 107.974C66.2905 120.9 58.9989 141.146 57.8472 154.552 57.1217 163.054 59.5042 170.682 63.8826 174.837 63.9303 174.887 64.0088 174.888 64.0582 174.84 64.0669 174.832 64.0742 174.822 64.0802 174.812 74.6633 156.147 96.0751 124.358 111.322 109.089 122.944 97.1616 135.915 86.6282 149.973 77.7007 151.953 76.4525 154.105 75.5014 156.361 74.8778 156.656 74.7765 156.978 74.9332 157.079 75.2279 157.165 75.4788 157.065 75.7563 156.838 75.8941 145.278 83.9383 134.457 92.9959 124.505 102.96 106.912 120.57 82.3529 154.487 70.5249 176.997 69.9067 178.182 69.2828 179.309 68.5968 180.435Z" fill="#997E33" transform="matrix(1 0 0 1 964 132)"/></g></g></g><path d="M1158 251 1262.84 251" stroke="#997E33" stroke-width="2.29167" stroke-miterlimit="8" fill="none" fill-rule="evenodd"/><path d="M1125 284 1263.36 284" stroke="#997E33" stroke-width="2.29167" stroke-miterlimit="8" fill="none" fill-rule="evenodd"/><path d="M1180 219 1262.96 219" stroke="#997E33" stroke-width="2.29167" stroke-miterlimit="8" fill="none" fill-rule="evenodd"/></g></svg>