<svg width="25" height="25" viewBox="0 0 48 48" xmlns="http://www.w3.org/2000/svg" xmlns:xlink="http://www.w3.org/1999/xlink" xml:space="preserve" overflow="hidden">
  <g transform="translate(-592 -312)">
    <path d="M607.854 333.385 607.146 332.677 600.807 339.017C600.806 339.019 600.802 339.019 600.8 339.017 600.8 339.016 600.799 339.015 600.799 339.014 599.128 330.618 604.58 322.458 612.976 320.787 619.981 319.393 627.031 322.966 630.049 329.439L630.955 329.016C627.115 320.754 617.305 317.169 609.042 321.009 602.412 324.09 598.601 331.168 599.679 338.4 599.68 338.402 599.679 338.405 599.676 338.406 599.674 338.406 599.672 338.406 599.671 338.404L593.945 332.677 593.239 333.385 600.546 340.693Z" stroke="#523C00" stroke-width="0.500053"/>
    <path d="M624.146 339.632 624.854 340.339 631.333 333.859C631.335 333.857 631.339 333.857 631.341 333.859 631.341 333.86 631.342 333.861 631.342 333.862 632.559 342.299 626.706 350.125 618.269 351.342 617.518 351.45 616.759 351.503 616 351.5 610.262 351.505 604.991 348.336 602.305 343.266L601.422 343.734C605.689 351.786 615.676 354.853 623.728 350.585 629.127 347.723 632.503 342.111 632.5 336 632.5 335.582 632.48 335.163 632.45 334.745 632.45 334.742 632.452 334.74 632.455 334.74 632.456 334.74 632.457 334.74 632.458 334.741L638.055 340.341 638.763 339.634 631.454 332.324Z" stroke="#523C00" stroke-width="0.500053"/>
  </g>
</svg>
