<svg width="25" height="25" viewBox="0 0 147 141" xmlns="http://www.w3.org/2000/svg" xmlns:xlink="http://www.w3.org/1999/xlink" xml:space="preserve" overflow="hidden">
  <g transform="translate(-1385 -191)">
    <g>
      <g>
        <g>
          <path d="M59 19.6667C68.5039 19.6667 76.2083 27.3711 76.2083 36.875 76.2083 46.3789 68.5039 54.0833 59 54.0833 49.496 54.0833 41.7916 46.3789 41.7916 36.875 41.8011 27.375 49.5 19.6761 59 19.6667M59 17.2083C48.1383 17.2083 39.3333 26.0133 39.3333 36.875 39.3333 47.7366 48.1383 56.5416 59 56.5416 69.8616 56.5416 78.6666 47.7366 78.6666 36.875 78.6666 26.0133 69.8616 17.2083 59 17.2083Z" stroke="#997E33" stroke-width="1.22901" fill="#997E33" transform="matrix(1 0 0 1.05085 1399 193)"/>
          <path d="M98.3333 100.792 95.8749 100.792 95.8749 81.7395C95.8164 79.1286 94.5864 76.6826 92.5255 75.0787 87.1347 70.9423 80.9624 67.9398 74.3805 66.252 69.3971 64.7185 64.214 63.9315 59 63.9166 53.7876 64.0071 48.6106 64.7925 43.6059 66.252 37.0927 68.1597 30.9477 71.1516 25.429 75.102 23.3888 76.7078 22.1762 79.1438 22.125 81.7395L22.125 100.792 19.6667 100.792 19.6667 81.7395C19.7276 78.3822 21.2969 75.2307 23.9392 73.1587 29.7059 69.0191 36.1312 65.8848 42.9434 63.8883 48.1635 62.3674 53.5635 61.5501 59 61.4583 64.4477 61.4717 69.8636 62.2914 75.0713 63.8908 81.9663 65.6674 88.4297 68.8226 94.0717 73.1661 96.7088 75.238 98.2738 78.3864 98.3333 81.7395Z" stroke="#997E33" stroke-width="1.22901" fill="#997E33" transform="matrix(1 0 0 1.05085 1399 193)"/>
        </g>
      </g>
    </g>
    <path d="M1387.5 261.5C1387.5 223.945 1419.29 193.5 1458.5 193.5 1497.71 193.5 1529.5 223.945 1529.5 261.5 1529.5 299.055 1497.71 329.5 1458.5 329.5 1419.29 329.5 1387.5 299.055 1387.5 261.5Z" stroke="#997E33" stroke-width="4.58333" stroke-miterlimit="8" fill="none" fill-rule="evenodd"/>
  </g>
</svg>
