<svg width="414" height="48" xmlns="http://www.w3.org/2000/svg" xmlns:xlink="http://www.w3.org/1999/xlink" xml:space="preserve" overflow="hidden"><g transform="translate(-667 -64)"><path d="M37.3535 16.1465C37.1549 15.9546 36.8383 15.9601 36.6465 16.1588 36.4594 16.3526 36.4594 16.6597 36.6465 16.8535L43.2845 23.4915C43.2864 23.4935 43.2864 23.4967 43.2845 23.4986 43.2835 23.4995 43.2823 23.5 43.281 23.5L3.5 23.5C3.22386 23.5 3 23.7239 3 24 3 24.2761 3.22386 24.5 3.5 24.5L43.281 24.5C43.2837 24.5 43.2859 24.5023 43.2859 24.5051 43.2859 24.5063 43.2854 24.5076 43.2845 24.5085L36.6465 31.1465C36.4478 31.3384 36.4423 31.6549 36.6342 31.8535 36.826 32.0522 37.1426 32.0577 37.3412 31.8658 37.3454 31.8617 37.3495 31.8577 37.3535 31.8535L44.8535 24.3535C45.0487 24.1583 45.0487 23.8417 44.8535 23.6465Z" fill="#997E33" transform="matrix(-8.625 1.05626e-15 -1.22465e-16 -1 1081 112)"/></g></svg>